<?xml version="1.0" encoding="UTF-8"?>
<svg version="1.1" xmlns="http://www.w3.org/2000/svg" width="192" height="192">
<path d="M0 0 C1.05703125 0.37382813 2.1140625 0.74765625 3.203125 1.1328125 C26.11139011 10.00242284 44.44425546 26.76531551 55 49 C56.20197066 51.72253595 57.31290887 54.47009192 58.375 57.25 C58.61379883 57.87487305 58.85259766 58.49974609 59.09863281 59.14355469 C65.75270867 77.60355965 65.61764101 100.5744113 59 119 C58.62617188 120.05703125 58.25234375 121.1140625 57.8671875 122.203125 C48.99757716 145.11139011 32.23468449 163.44425546 10 174 C7.27746405 175.20197066 4.52990808 176.31290887 1.75 177.375 C1.12512695 177.61379883 0.50025391 177.85259766 -0.14355469 178.09863281 C-18.60355965 184.75270867 -41.5744113 184.61764101 -60 178 C-61.05703125 177.62617188 -62.1140625 177.25234375 -63.203125 176.8671875 C-86.11139011 167.99757716 -104.44425546 151.23468449 -115 129 C-116.20197066 126.27746405 -117.31290887 123.52990808 -118.375 120.75 C-118.61379883 120.12512695 -118.85259766 119.50025391 -119.09863281 118.85644531 C-125.75270867 100.39644035 -125.61764101 77.4255887 -119 59 C-118.62617187 57.94296875 -118.25234375 56.8859375 -117.8671875 55.796875 C-108.99757716 32.88860989 -92.23468449 14.55574454 -70 4 C-67.27746405 2.79802934 -64.52990808 1.68709113 -61.75 0.625 C-61.12512695 0.38620117 -60.50025391 0.14740234 -59.85644531 -0.09863281 C-41.39644035 -6.75270867 -18.4255887 -6.61764101 0 0 Z " fill="#FEFEFE" transform="translate(126,7)"/>
<path d="M0 0 C1.98 3.63 3.96 7.26 6 11 C6.66 11 7.32 11 8 11 C9.98 7.37 11.96 3.74 14 0 C19 2 19 2 22 4 C20.21413756 9.02957178 17.34658988 12.96304725 14.265625 17.28125 C12.68246279 19.88705986 12.68246279 19.88705986 13.71362305 22.30444336 C15.11768068 25.24659564 16.66515899 28.03625482 18.31640625 30.84765625 C18.64488052 31.40852432 18.9733548 31.9693924 19.31178284 32.54725647 C20.39156151 34.38793111 21.47674825 36.22534325 22.5625 38.0625 C23.32084856 39.35072057 24.0791486 40.63896971 24.83740234 41.92724609 C30.20481799 51.03042353 35.64249083 60.09073348 41.125 69.125 C41.47176788 69.69678986 41.81853577 70.26857971 42.17581177 70.85769653 C46.26387663 77.59174547 50.42263405 84.26489304 54.74560547 90.85107422 C56 93 56 93 56 95 C59.3 95 62.6 95 66 95 C66 97.64 66 100.28 66 103 C27.06 103 -11.88 103 -52 103 C-52 100.36 -52 97.72 -52 95 C-48.7 95 -45.4 95 -42 95 C-41.73695068 94.2881958 -41.47390137 93.5763916 -41.20288086 92.84301758 C-39.9436736 89.86687215 -38.44803902 87.26289261 -36.75390625 84.51171875 C-36.09036133 83.42793945 -35.42681641 82.34416016 -34.74316406 81.22753906 C-34.21100281 80.36376648 -34.21100281 80.36376648 -33.66809082 79.48254395 C-31.75579982 76.3777367 -29.85644753 73.26503861 -27.95703125 70.15234375 C-27.35748123 69.17045578 -27.35748123 69.17045578 -26.74581909 68.16873169 C-21.18901442 59.05168382 -15.76677244 49.85425241 -10.33422852 40.6628418 C-9.95069717 40.01506271 -9.56716583 39.36728363 -9.17201233 38.69987488 C-8.43396487 37.45157906 -7.69815731 36.20195563 -6.96482849 34.95088196 C-5.03421658 31.67187821 -2.99224375 28.51852133 -0.828125 25.390625 C1.3225681 22.23866857 1.3225681 22.23866857 0.5390625 19.35546875 C0.03117187 18.57816406 -0.47671875 17.80085938 -1 17 C-1.56976563 16.06800781 -2.13953125 15.13601562 -2.7265625 14.17578125 C-3.99737609 12.25910149 -5.26820958 10.34243493 -6.5390625 8.42578125 C-8 6 -8 6 -8 4 C-2.58823529 0 -2.58823529 0 0 0 Z " fill="#484848" transform="translate(89,40)"/>
<path d="M0 0 C0.66 0 1.32 0 2 0 C3.45006287 2.22110286 4.76539725 4.44000753 6.0625 6.75 C6.95876777 8.30984246 7.85738345 9.86833721 8.7578125 11.42578125 C9.26473633 12.30314941 9.77166016 13.18051758 10.29394531 14.08447266 C13.24655872 19.13028109 16.28856263 24.12185787 19.32836914 29.11541748 C20.43685487 30.93644018 21.54375971 32.75841606 22.65039062 34.58056641 C25.92860603 39.97504732 29.21759847 45.36245572 32.5390625 50.73046875 C33.05670166 51.56908447 33.57434082 52.4077002 34.10766602 53.27172852 C35.05210788 54.79941355 36.00030031 56.32478862 36.95288086 57.84741211 C40 62.77818306 40 62.77818306 40 65 C28.45 65 16.9 65 5 65 C5 53.78 5 42.56 5 31 C2.36 31 -0.28 31 -3 31 C-3 42.22 -3 53.44 -3 65 C-14.55 65 -26.1 65 -38 65 C-36.37489966 60.93724915 -34.7066818 57.64668244 -32.46484375 53.93359375 C-32.1138562 53.35007645 -31.76286865 52.76655914 -31.40124512 52.1653595 C-30.25021585 50.25390517 -29.09391798 48.34569812 -27.9375 46.4375 C-27.13585582 45.1085753 -26.33450882 43.77947129 -25.53344727 42.45019531 C-19.12269014 31.82097308 -12.67994835 21.2107588 -6.22045898 10.61108398 C-5.54829346 9.50708252 -4.87612793 8.40308105 -4.18359375 7.265625 C-3.59118896 6.29399414 -2.99878418 5.32236328 -2.38842773 4.32128906 C-1.01030545 2.0833799 -1.01030545 2.0833799 0 0 Z " fill="#F9F9F9" transform="translate(95,70)"/>
</svg>
